<svg viewBox="0 0 512 512" fill="none" xmlns="http://www.w3.org/2000/svg" role="img" aria-label="RepGuard">
  <defs>
    <linearGradient id="rgGold" x1="120" y1="110" x2="300" y2="300" gradientUnits="userSpaceOnUse">
      <stop offset="0" stop-color="#efc457"/>
      <stop offset="1" stop-color="#c2862c"/>
    </linearGradient>
    <linearGradient id="rgSwoosh" x1="340" y1="140" x2="240" y2="470" gradientUnits="userSpaceOnUse">
      <stop offset="0" stop-color="#3a4451"/>
      <stop offset="0.5" stop-color="#2a323d"/>
      <stop offset="1" stop-color="#1d232c"/>
    </linearGradient>
    <linearGradient id="rgGloss" x1="0" y1="96" x2="0" y2="300" gradientUnits="userSpaceOnUse">
      <stop offset="0" stop-color="#ffffff" stop-opacity="0.44"/>
      <stop offset="1" stop-color="#ffffff" stop-opacity="0"/>
    </linearGradient>
    <linearGradient id="rgRing" x1="150" y1="130" x2="350" y2="350" gradientUnits="userSpaceOnUse">
      <stop offset="0" stop-color="#f6e3ab"/>
      <stop offset="0.5" stop-color="#c0902f"/>
      <stop offset="1" stop-color="#90591c"/>
    </linearGradient>
    <radialGradient id="rgLens" cx="220" cy="205" r="118" gradientUnits="userSpaceOnUse">
      <stop offset="0" stop-color="#fffdf6"/>
      <stop offset="1" stop-color="#f4e0bd"/>
    </radialGradient>
    <linearGradient id="rgCheck" x1="200" y1="190" x2="300" y2="270" gradientUnits="userSpaceOnUse">
      <stop offset="0" stop-color="#cda236"/>
      <stop offset="1" stop-color="#9a5a2e"/>
    </linearGradient>
    <linearGradient id="rgHandle" x1="120" y1="300" x2="180" y2="360" gradientUnits="userSpaceOnUse">
      <stop offset="0" stop-color="#8a4f2a"/>
      <stop offset="1" stop-color="#cf9a37"/>
    </linearGradient>
    <clipPath id="rgClip"><path d="M256 96 408 140 C416 142.5 420.5 150 420.5 159 L420.5 268 C420.5 358 358 428.5 256 470.5 C154 428.5 91.5 358 91.5 268 L91.5 159 C91.5 150 96 142.5 104 140 Z"/></clipPath>
  </defs>

  <path d="M256 96 408 140 C416 142.5 420.5 150 420.5 159 L420.5 268 C420.5 358 358 428.5 256 470.5 C154 428.5 91.5 358 91.5 268 L91.5 159 C91.5 150 96 142.5 104 140 Z" fill="url(#rgGold)" stroke="#6f4420" stroke-width="3" stroke-opacity="0.5"/>
  <g clip-path="url(#rgClip)">
    <path d="M340 96 L430 96 L430 480 L160 480 Z" fill="url(#rgSwoosh)"/>
    <rect x="80" y="92" width="352" height="212" fill="url(#rgGloss)"/>
    <ellipse cx="178" cy="166" rx="96" ry="60" fill="#ffffff" opacity="0.22"/>
    <path d="M110 137 Q256 93 402 137" fill="none" stroke="#ffffff" stroke-width="7" stroke-linecap="round" opacity="0.4"/>
  </g>

  <line x1="178" y1="298" x2="120" y2="360" stroke="url(#rgHandle)" stroke-width="44" stroke-linecap="round"/>
  <line x1="170" y1="302" x2="128" y2="348" stroke="#ffffff" stroke-width="11" stroke-linecap="round" opacity="0.30"/>

  <circle cx="248" cy="232" r="120" fill="url(#rgRing)" stroke="#7a4d1d" stroke-width="2.5" stroke-opacity="0.4"/>
  <circle cx="248" cy="232" r="86" fill="url(#rgLens)"/>
  <path d="M151.9 176.5 A111 111 0 0 1 344.1 176.5" fill="none" stroke="#ffffff" stroke-width="9" stroke-linecap="round" opacity="0.6"/>
  <circle cx="184" cy="158" r="13" fill="#ffffff" opacity="0.6"/>

  <path d="M206 232 238 266 302 192" fill="none" stroke="url(#rgCheck)" stroke-width="28" stroke-linecap="round" stroke-linejoin="round"/>
  <path d="M212 228 238 256 298 196" fill="none" stroke="#ffffff" stroke-width="6" stroke-linecap="round" stroke-linejoin="round" opacity="0.28"/>
</svg>
